<svg data-v-423bf9ae="" xmlns="http://www.w3.org/2000/svg" viewBox="0 0 332.259302688598 60" class="font"><!----><!----><!----><g data-v-423bf9ae="" id="f0f2bb21-cf37-4a4a-9f3f-14c3d6b6445c" fill="white" transform="matrix(5.71973320392212,0,0,5.71973320392212,-2.8026703143830787,-18.81792202271327)"><path d="M6.23 6.47L6.23 6.47L6.23 6.47Q5.96 5.95 5.60 5.67L5.60 5.67L5.60 5.67Q5.24 5.39 4.87 5.29L4.87 5.29L4.87 5.29Q4.49 5.19 4.15 5.26L4.15 5.26L4.15 5.26Q3.81 5.33 3.58 5.50L3.58 5.50L3.58 5.50Q3.36 5.67 3.30 5.91L3.30 5.91L3.30 5.91Q3.25 6.15 3.44 6.40L3.44 6.40L3.44 6.40Q3.71 6.73 4.20 7.13L4.20 7.13L4.20 7.13Q4.69 7.53 5.21 7.98L5.21 7.98L5.21 7.98Q5.74 8.43 6.22 8.90L6.22 8.90L6.22 8.90Q6.69 9.38 6.92 9.87L6.92 9.87L6.92 9.87Q7.20 10.50 7.15 11.19L7.15 11.19L7.15 11.19Q7.11 11.89 6.75 12.46L6.75 12.46L6.75 12.46Q6.40 13.03 5.74 13.41L5.74 13.41L5.74 13.41Q5.08 13.78 4.14 13.78L4.14 13.78L4.14 13.78Q3.58 13.78 3.04 13.60L3.04 13.60L3.04 13.60Q2.51 13.43 2.03 13.11L2.03 13.11L2.03 13.11Q1.55 12.80 1.16 12.36L1.16 12.36L1.16 12.36Q0.76 11.93 0.49 11.40L0.49 11.40L1.96 10.32L1.96 10.32Q2.09 10.58 2.28 10.84L2.28 10.84L2.28 10.84Q2.48 11.09 2.72 11.31L2.72 11.31L2.72 11.31Q2.95 11.52 3.21 11.68L3.21 11.68L3.21 11.68Q3.47 11.84 3.71 11.91L3.71 11.91L3.71 11.91Q4.13 12.03 4.50 11.94L4.50 11.94L4.50 11.94Q4.87 11.86 5.08 11.63L5.08 11.63L5.08 11.63Q5.29 11.40 5.29 11.05L5.29 11.05L5.29 11.05Q5.29 10.71 4.97 10.30L4.97 10.30L4.97 10.30Q4.62 9.87 4.03 9.41L4.03 9.41L4.03 9.41Q3.44 8.95 2.87 8.43L2.87 8.43L2.87 8.43Q2.30 7.91 1.88 7.31L1.88 7.31L1.88 7.31Q1.46 6.71 1.46 5.99L1.46 5.99L1.46 5.99Q1.46 5.45 1.68 4.98L1.68 4.98L1.68 4.98Q1.90 4.52 2.27 4.20L2.27 4.20L2.27 4.20Q2.65 3.88 3.14 3.70L3.14 3.70L3.14 3.70Q3.63 3.51 4.16 3.51L4.16 3.51L4.16 3.51Q4.83 3.51 5.41 3.70L5.41 3.70L5.41 3.70Q5.99 3.89 6.36 4.24L6.36 4.24L6.36 4.24Q6.62 4.48 6.76 4.77L6.76 4.77L6.76 4.77Q6.90 5.07 6.90 5.37L6.90 5.37L6.90 5.37Q6.90 5.67 6.74 5.96L6.74 5.96L6.74 5.96Q6.58 6.24 6.23 6.47ZM10.14 3.72L10.14 9.37L11.66 7.67L11.66 7.67Q12.12 7.15 12.57 6.83L12.57 6.83L12.57 6.83Q13.02 6.51 13.65 6.47L13.65 6.47L13.65 6.47Q13.96 6.45 14.24 6.52L14.24 6.52L14.24 6.52Q14.52 6.58 14.70 6.74L14.70 6.74L14.70 6.74Q14.88 6.90 14.94 7.15L14.94 7.15L14.94 7.15Q14.99 7.39 14.87 7.74L14.87 7.74L14.87 7.74Q14.81 7.64 14.67 7.61L14.67 7.61L14.67 7.61Q14.52 7.57 14.32 7.62L14.32 7.62L14.32 7.62Q14.11 7.66 13.87 7.79L13.87 7.79L13.87 7.79Q13.64 7.92 13.41 8.19L13.41 8.19L11.93 9.83L15.34 13.52L13.13 13.52L10.14 10.26L10.14 13.52L8.36 13.52L8.36 5.15L8.36 5.15Q8.36 4.48 8.84 4.10L8.84 4.10L8.84 4.10Q9.32 3.71 10.14 3.72L10.14 3.72ZM16.46 13.52L16.46 7.74L16.46 7.74Q16.49 7.32 16.64 7.04L16.64 7.04L16.64 7.04Q16.79 6.76 17.02 6.59L17.02 6.59L17.02 6.59Q17.26 6.43 17.58 6.35L17.58 6.35L17.58 6.35Q17.89 6.27 18.27 6.27L18.27 6.27L18.27 13.52L16.46 13.52ZM17.37 3.29L17.37 3.29L17.37 3.29Q17.85 3.29 18.19 3.64L18.19 3.64L18.19 3.64Q18.54 3.98 18.54 4.47L18.54 4.47L18.54 4.47Q18.54 4.96 18.20 5.31L18.20 5.31L18.20 5.31Q18.00 5.50 17.75 5.58L17.75 5.58L17.75 5.58Q17.49 5.66 17.23 5.73L17.23 5.73L17.23 5.73Q16.97 5.81 16.75 5.92L16.75 5.92L16.75 5.92Q16.53 6.02 16.45 6.26L16.45 6.26L16.45 6.26Q16.38 6.03 16.30 5.68L16.30 5.68L16.30 5.68Q16.23 5.33 16.21 4.96L16.21 4.96L16.21 4.96Q16.18 4.58 16.25 4.22L16.25 4.22L16.25 4.22Q16.31 3.86 16.55 3.63L16.55 3.63L16.55 3.63Q16.88 3.29 17.37 3.29ZM25.19 13.51L25.19 12.74L25.19 12.74Q24.67 13.24 24.06 13.48L24.06 13.48L24.06 13.48Q23.45 13.71 22.83 13.69L22.83 13.69L22.83 13.69Q22.22 13.66 21.64 13.41L21.64 13.41L21.64 13.41Q21.07 13.15 20.63 12.66L20.63 12.66L20.63 12.66Q20.19 12.18 19.92 11.51L19.92 11.51L19.92 11.51Q19.66 10.84 19.66 9.98L19.66 9.98L19.66 9.98Q19.66 9.16 19.94 8.47L19.94 8.47L19.94 8.47Q20.23 7.78 20.71 7.29L20.71 7.29L20.71 7.29Q21.20 6.79 21.81 6.52L21.81 6.52L21.81 6.52Q22.43 6.26 23.10 6.29L23.10 6.29L23.10 6.29Q23.80 6.31 24.20 6.58L24.20 6.58L24.20 6.58Q24.60 6.85 24.77 7.20L24.77 7.20L24.77 7.20Q24.95 7.55 24.94 7.90L24.94 7.90L24.94 7.90Q24.93 8.26 24.81 8.48L24.81 8.48L24.81 8.48Q24.57 8.15 24.14 8.03L24.14 8.03L24.14 8.03Q23.72 7.91 23.34 7.91L23.34 7.91L23.34 7.91Q22.71 7.91 22.28 8.22L22.28 8.22L22.28 8.22Q21.85 8.53 21.64 8.99L21.64 8.99L21.64 8.99Q21.42 9.45 21.42 9.99L21.42 9.99L21.42 9.99Q21.42 10.53 21.63 10.99L21.63 10.99L21.63 10.99Q21.84 11.45 22.26 11.76L22.26 11.76L22.26 11.76Q22.68 12.07 23.32 12.07L23.32 12.07L23.32 12.07Q23.87 12.07 24.23 11.82L24.23 11.82L24.23 11.82Q24.58 11.58 24.79 11.19L24.79 11.19L24.79 11.19Q25.00 10.79 25.09 10.31L25.09 10.31L25.09 10.31Q25.19 9.83 25.19 9.35L25.19 9.35L25.19 3.74L25.19 3.74Q26.01 3.77 26.48 4.19L26.48 4.19L26.48 4.19Q26.95 4.61 26.95 5.17L26.95 5.17L26.95 13.51L25.19 13.51ZM29.11 6.33L29.11 5.15L29.11 5.15Q29.11 4.76 29.25 4.49L29.25 4.49L29.25 4.49Q29.40 4.21 29.64 4.05L29.64 4.05L29.64 4.05Q29.89 3.88 30.21 3.80L30.21 3.80L30.21 3.80Q30.53 3.72 30.87 3.72L30.87 3.72L30.87 6.33L32.49 6.33L32.49 6.33Q32.49 6.61 32.45 6.87L32.45 6.87L32.45 6.87Q32.40 7.14 32.26 7.36L32.26 7.36L32.26 7.36Q32.12 7.57 31.88 7.71L31.88 7.71L31.88 7.71Q31.64 7.84 31.26 7.84L31.26 7.84L30.87 7.84L30.87 11.80L30.87 11.80Q30.87 12.03 31.04 12.12L31.04 12.12L31.04 12.12Q31.21 12.21 31.43 12.20L31.43 12.20L31.43 12.20Q31.65 12.19 31.88 12.10L31.88 12.10L31.88 12.10Q32.10 12.00 32.20 11.83L32.20 11.83L32.20 11.83Q32.38 12.29 32.22 12.65L32.22 12.65L32.22 12.65Q32.06 13.01 31.72 13.22L31.72 13.22L31.72 13.22Q31.37 13.44 30.92 13.50L30.92 13.50L30.92 13.50Q30.46 13.57 30.06 13.43L30.06 13.43L30.06 13.43Q29.67 13.30 29.39 12.96L29.39 12.96L29.39 12.96Q29.11 12.61 29.11 12.03L29.11 12.03L29.11 7.84L28.21 7.84L28.21 6.33L29.11 6.33ZM37.13 6.10L37.13 6.10L37.13 6.10Q38.23 6.10 39.09 6.64L39.09 6.64L39.09 6.64Q39.96 7.17 40.45 7.99L40.45 7.99L40.45 7.99Q40.94 8.82 40.97 9.83L40.97 9.83L40.97 9.83Q41.01 10.84 40.46 11.80L40.46 11.80L40.46 11.80Q40.00 12.60 39.26 13.08L39.26 13.08L39.26 13.08Q38.51 13.55 37.67 13.67L37.67 13.67L37.67 13.67Q36.83 13.79 35.99 13.53L35.99 13.53L35.99 13.53Q35.14 13.27 34.47 12.60L34.47 12.60L34.47 12.60Q33.71 11.83 33.46 10.82L33.46 10.82L33.46 10.82Q33.21 9.81 33.50 8.81L33.50 8.81L33.50 8.81Q33.63 8.40 33.91 8.13L33.91 8.13L33.91 8.13Q34.20 7.87 34.57 7.74L34.57 7.74L34.57 7.74Q34.93 7.62 35.32 7.63L35.32 7.63L35.32 7.63Q35.71 7.64 36.05 7.79L36.05 7.79L36.05 7.79Q36.39 7.94 36.62 8.21L36.62 8.21L36.62 8.21Q36.85 8.48 36.89 8.88L36.89 8.88L36.89 8.88Q36.68 8.72 36.39 8.71L36.39 8.71L36.39 8.71Q36.09 8.71 35.82 8.84L35.82 8.84L35.82 8.84Q35.55 8.97 35.36 9.25L35.36 9.25L35.36 9.25Q35.17 9.52 35.17 9.93L35.17 9.93L35.17 9.93Q35.17 10.63 35.46 11.09L35.46 11.09L35.46 11.09Q35.76 11.55 36.20 11.78L36.20 11.78L36.20 11.78Q36.64 12.01 37.15 12.01L37.15 12.01L37.15 12.01Q37.66 12.01 38.10 11.77L38.10 11.77L38.10 11.77Q38.54 11.54 38.84 11.07L38.84 11.07L38.84 11.07Q39.13 10.60 39.13 9.90L39.13 9.90L39.13 9.90Q39.13 9.35 38.93 8.93L38.93 8.93L38.93 8.93Q38.74 8.51 38.41 8.24L38.41 8.24L38.41 8.24Q38.08 7.97 37.65 7.86L37.65 7.86L37.65 7.86Q37.21 7.76 36.72 7.85L36.72 7.85L36.72 7.85Q36.51 7.60 36.21 7.46L36.21 7.46L36.21 7.46Q35.91 7.31 35.56 7.26L35.56 7.26L35.56 7.26Q35.21 7.21 34.86 7.27L34.86 7.27L34.86 7.27Q34.51 7.34 34.20 7.52L34.20 7.52L34.20 7.52Q34.76 6.85 35.50 6.48L35.50 6.48L35.50 6.48Q36.25 6.10 37.13 6.10ZM45.61 6.10L45.61 6.10L45.61 6.10Q46.72 6.10 47.58 6.64L47.58 6.64L47.58 6.64Q48.44 7.17 48.93 7.99L48.93 7.99L48.93 7.99Q49.42 8.82 49.46 9.83L49.46 9.83L49.46 9.83Q49.49 10.84 48.94 11.80L48.94 11.80L48.94 11.80Q48.48 12.60 47.74 13.08L47.74 13.08L47.74 13.08Q47.00 13.55 46.16 13.67L46.16 13.67L46.16 13.67Q45.32 13.79 44.47 13.53L44.47 13.53L44.47 13.53Q43.62 13.27 42.95 12.60L42.95 12.60L42.95 12.60Q42.20 11.83 41.94 10.82L41.94 10.82L41.94 10.82Q41.69 9.81 41.99 8.81L41.99 8.81L41.99 8.81Q42.11 8.40 42.40 8.13L42.40 8.13L42.40 8.13Q42.69 7.87 43.05 7.74L43.05 7.74L43.05 7.74Q43.41 7.62 43.81 7.63L43.81 7.63L43.81 7.63Q44.20 7.64 44.53 7.79L44.53 7.79L44.53 7.79Q44.87 7.94 45.10 8.21L45.10 8.21L45.10 8.21Q45.33 8.48 45.37 8.88L45.37 8.88L45.37 8.88Q45.16 8.72 44.87 8.71L44.87 8.71L44.87 8.71Q44.58 8.71 44.30 8.84L44.30 8.84L44.30 8.84Q44.03 8.97 43.84 9.25L43.84 9.25L43.84 9.25Q43.65 9.52 43.65 9.93L43.65 9.93L43.65 9.93Q43.65 10.63 43.95 11.09L43.95 11.09L43.95 11.09Q44.24 11.55 44.68 11.78L44.68 11.78L44.68 11.78Q45.12 12.01 45.63 12.01L45.63 12.01L45.63 12.01Q46.14 12.01 46.59 11.77L46.59 11.77L46.59 11.77Q47.03 11.54 47.32 11.07L47.32 11.07L47.32 11.07Q47.61 10.60 47.61 9.90L47.61 9.90L47.61 9.90Q47.61 9.35 47.42 8.93L47.42 8.93L47.42 8.93Q47.22 8.51 46.89 8.24L46.89 8.24L46.89 8.24Q46.56 7.97 46.13 7.86L46.13 7.86L46.13 7.86Q45.70 7.76 45.21 7.85L45.21 7.85L45.21 7.85Q45.00 7.60 44.70 7.46L44.70 7.46L44.70 7.46Q44.39 7.31 44.04 7.26L44.04 7.26L44.04 7.26Q43.69 7.21 43.34 7.27L43.34 7.27L43.34 7.27Q42.99 7.34 42.69 7.52L42.69 7.52L42.69 7.52Q43.25 6.85 43.99 6.48L43.99 6.48L43.99 6.48Q44.73 6.10 45.61 6.10ZM52.35 3.72L52.35 3.72L52.35 13.52L50.58 13.52L50.58 5.15L50.58 5.15Q50.58 4.48 51.06 4.10L51.06 4.10L51.06 4.10Q51.53 3.71 52.35 3.72ZM57.34 8.50L57.34 8.50L57.34 8.50Q57.23 8.23 57.04 8.07L57.04 8.07L57.04 8.07Q56.84 7.91 56.61 7.83L56.61 7.83L56.61 7.83Q56.38 7.74 56.16 7.74L56.16 7.74L56.16 7.74Q55.94 7.73 55.80 7.78L55.80 7.78L55.80 7.78Q55.55 7.87 55.48 8.07L55.48 8.07L55.48 8.07Q55.40 8.27 55.55 8.46L55.55 8.46L55.55 8.46Q55.68 8.60 55.95 8.73L55.95 8.73L55.95 8.73Q56.22 8.86 56.56 9.02L56.56 9.02L56.56 9.02Q56.90 9.18 57.25 9.39L57.25 9.39L57.25 9.39Q57.61 9.59 57.90 9.87L57.90 9.87L57.90 9.87Q58.20 10.15 58.39 10.53L58.39 10.53L58.39 10.53Q58.58 10.91 58.58 11.42L58.58 11.42L58.58 11.42Q58.58 12.03 58.31 12.48L58.31 12.48L58.31 12.48Q58.04 12.94 57.60 13.22L57.60 13.22L57.60 13.22Q57.16 13.50 56.61 13.60L56.61 13.60L56.61 13.60Q56.06 13.71 55.49 13.62L55.49 13.62L55.49 13.62Q54.92 13.54 54.39 13.24L54.39 13.24L54.39 13.24Q53.86 12.94 53.47 12.42L53.47 12.42L54.59 11.21L54.59 11.21Q54.94 11.63 55.32 11.82L55.32 11.82L55.32 11.82Q55.71 12.00 56.04 12.02L56.04 12.02L56.04 12.02Q56.36 12.04 56.59 11.92L56.59 11.92L56.59 11.92Q56.81 11.80 56.86 11.60L56.86 11.60L56.86 11.60Q56.91 11.40 56.74 11.15L56.74 11.15L56.74 11.15Q56.57 10.91 56.10 10.67L56.10 10.67L56.10 10.67Q55.65 10.44 55.22 10.21L55.22 10.21L55.22 10.21Q54.80 9.97 54.47 9.67L54.47 9.67L54.47 9.67Q54.14 9.38 53.94 9.02L53.94 9.02L53.94 9.02Q53.73 8.65 53.73 8.16L53.73 8.16L53.73 8.16Q53.73 7.66 53.94 7.27L53.94 7.27L53.94 7.27Q54.15 6.87 54.50 6.61L54.50 6.61L54.50 6.61Q54.85 6.34 55.30 6.22L55.30 6.22L55.30 6.22Q55.75 6.09 56.22 6.10L56.22 6.10L56.22 6.10Q57.04 6.15 57.46 6.46L57.46 6.46L57.46 6.46Q57.89 6.78 58.00 7.18L58.00 7.18L58.00 7.18Q58.10 7.57 57.93 7.95L57.93 7.95L57.93 7.95Q57.75 8.33 57.34 8.50Z"></path></g><!----><!----></svg>