<?xml version="1.0" encoding="utf-8"?>
<!-- Generator: Adobe Illustrator 22.1.0, SVG Export Plug-In . SVG Version: 6.00 Build 0)  -->
<svg version="1.1" id="Layer_1" xmlns="http://www.w3.org/2000/svg" xmlns:xlink="http://www.w3.org/1999/xlink" x="0px" y="0px"
	 viewBox="0 0 300 300" style="enable-background:new 0 0 300 300;" xml:space="preserve">
<style type="text/css">
	.st0{fill:#DCB933;}
</style>
<path class="st0" d="M101.7,278.7c2.4,6,8.2,10,14.7,10.1h0.1c6.5,0,12.3-3.9,14.7-9.9l35.8-89.5l106,106c0,0,0,0,0.1,0.1
	c6.2,6.1,16.2,6.1,22.3-0.1c0,0,0,0,0,0c6.2-6.2,6.2-16.2,0-22.3l-106-106l89.6-35.8c4.1-1.6,7.4-4.9,8.9-9
	c3.1-8.1-0.9-17.3-9.1-20.4L21.6,1.1c-3.7-1.5-7.9-1.5-11.6,0C1.9,4.3-2.1,13.5,1.1,21.6L101.7,278.7z M230,116.6l-74.7,29.9
	c-1.9,0.8-3.7,1.9-5.1,3.4c-1.6,1.5-2.8,3.4-3.7,5.4v0L116.6,230L43.7,43.7L230,116.6z"/>
</svg>
