<svg data-v-fde0c5aa="" xmlns="http://www.w3.org/2000/svg" viewBox="0 0 300 300" class="icon"><!----><defs data-v-fde0c5aa=""><!----></defs><rect data-v-fde0c5aa="" fill="#411640" x="0" y="0" width="300px" height="300px" class="logo-background-square"></rect><!----><defs data-v-fde0c5aa=""><!----></defs><g data-v-fde0c5aa="" id="bf2a516a-65b5-4233-b612-fe66697894ff" fill="#DCB933" stroke="none" transform="matrix(3.6666666666666665,0,0,3.6666666666666665,40,40)"><g><path d="M42.003 20h-2v2h2a1.001 1.001 0 0 0 0-2M5 4a1 1 0 1 1 0 2 1 1 0 0 1 0-2zm4 0a1 1 0 1 1 0 2 1 1 0 0 1 0-2zm4 0a1 1 0 1 1 0 2 1 1 0 0 1 0-2zm47 4V3c0-1.654-1.346-3-3-3H3C1.346 0 0 1.346 0 3v5h60z"></path><path d="M53 30c-2.206 0-4-1.794-4-4v-4h-1a1 1 0 1 1 0-2h1v-2a1 1 0 1 1 2 0v2h1a1 1 0 1 1 0 2h-1v4c0 1.103.897 2 2 2a1 1 0 1 1 0 2zm-10.997-6h-2.001v5a1 1 0 1 1-2 0V19a1 1 0 0 1 1-1h3.001a3.003 3.003 0 0 1 2.999 3c0 1.654-1.345 3-2.999 3zm.704 29.678a.997.997 0 0 1-1.414 0l-6.706-6.706-2.265 5.663a1 1 0 0 1-.928.629h-.004a1.002 1.002 0 0 1-.928-.636l-6.364-16.264a.999.999 0 0 1 1.296-1.296l16.263 6.365a.998.998 0 0 1 .008 1.86l-5.664 2.265 6.706 6.706a.999.999 0 0 1 0 1.414zM16 25c0-2.757 2.243-5 5-5a5 5 0 0 1 3.751 1.694 1 1 0 1 1-1.5 1.323A3.005 3.005 0 0 0 21 22c-1.654 0-3 1.346-3 3s1.346 3 3 3c.86 0 1.681-.37 2.251-1.017a1 1 0 1 1 1.499 1.325A5.007 5.007 0 0 1 21 30c-2.757 0-5-2.243-5-5zm-6-3c2.206 0 4 1.794 4 4s-1.794 4-4 4-4-1.794-4-4a1 1 0 1 1 2 0c0 1.103.897 2 2 2s2-.897 2-2-.897-2-2-2c-2.206 0-4-1.794-4-4s1.794-4 4-4 4 1.794 4 4a1 1 0 1 1-2 0c0-1.103-.897-2-2-2s-2 .897-2 2 .897 2 2 2zm17.002-1a1 1 0 0 1 1.915-.397A3.963 3.963 0 0 1 31.002 20a1 1 0 1 1 0 2c-1.103 0-2 .897-2 2v5a1 1 0 1 1-2 0v-8zm7 2a1 1 0 1 1 2 0v6a1 1 0 1 1-2 0v-6zm1.001-5a1 1 0 1 1 0 2 1 1 0 0 1 0-2zM0 10v47c0 1.654 1.346 3 3 3h54c1.654 0 3-1.346 3-3V10H0z"></path><path d="M33.294 44.82a1.006 1.006 0 0 1 .232-.343 1.007 1.007 0 0 1 .324-.214l4.724-1.889-11.78-4.61 4.61 11.782 1.89-4.725v-.002"></path></g></g><!----></svg>